<?xml version="1.0" encoding="UTF-8" standalone="no"?>
<!-- Created with Inkscape (http://www.inkscape.org/) -->

<svg
   xmlns:dc="http://purl.org/dc/elements/1.1/"
   xmlns:cc="http://creativecommons.org/ns#"
   xmlns:rdf="http://www.w3.org/1999/02/22-rdf-syntax-ns#"
   xmlns:svg="http://www.w3.org/2000/svg"
   xmlns="http://www.w3.org/2000/svg"
   xmlns:sodipodi="http://sodipodi.sourceforge.net/DTD/sodipodi-0.dtd"
   xmlns:inkscape="http://www.inkscape.org/namespaces/inkscape"
   width="268.15625"
   height="50.15625"
   id="svg2"
   version="1.1"
   inkscape:version="0.48.3.1 r9886"
   sodipodi:docname="icon.svg"
   inkscape:export-filename="/home/bilbo/Desktop/pythonlib/labscript/icon.png"
   inkscape:export-xdpi="172.26169"
   inkscape:export-ydpi="172.26169">
  <defs
     id="defs4" />
  <sodipodi:namedview
     id="base"
     pagecolor="#ffffff"
     bordercolor="#666666"
     borderopacity="1.0"
     inkscape:pageopacity="0.0"
     inkscape:pageshadow="2"
     inkscape:zoom="1.979899"
     inkscape:cx="133.32538"
     inkscape:cy="30.334766"
     inkscape:document-units="px"
     inkscape:current-layer="layer1"
     showgrid="false"
     fit-margin-top="0"
     fit-margin-left="0"
     fit-margin-right="0"
     fit-margin-bottom="0"
     inkscape:window-width="1124"
     inkscape:window-height="654"
     inkscape:window-x="686"
     inkscape:window-y="173"
     inkscape:window-maximized="0">
    <inkscape:grid
       type="xygrid"
       id="grid3767"
       empspacing="5"
       visible="true"
       enabled="true"
       snapvisiblegridlinesonly="true"
       originx="-164.65625px"
       originy="-566.86218px" />
  </sodipodi:namedview>
  <metadata
     id="metadata7">
    <rdf:RDF>
      <cc:Work
         rdf:about="">
        <dc:format>image/svg+xml</dc:format>
        <dc:type
           rdf:resource="http://purl.org/dc/dcmitype/StillImage" />
        <dc:title></dc:title>
      </cc:Work>
    </rdf:RDF>
  </metadata>
  <g
     inkscape:label="Layer 1"
     inkscape:groupmode="layer"
     id="layer1"
     transform="translate(-164.65625,-435.34375)">
    <rect
       style="color:#000000;fill:#ffffff;fill-opacity:1;fill-rule:nonzero;stroke:#000000;stroke-width:3.71608806;stroke-linecap:round;stroke-linejoin:round;stroke-miterlimit:4;stroke-opacity:1;stroke-dasharray:none;stroke-dashoffset:118.41;marker:none;visibility:visible;display:inline;overflow:visible;enable-background:accumulate"
       id="rect3757"
       width="264.46326"
       height="46.440754"
       x="166.50067"
       y="437.19241"
       ry="10.136605" />
    <path
       style="fill:none;stroke:#4794f5;stroke-width:2.95700002;stroke-linecap:round;stroke-linejoin:round;stroke-miterlimit:4;stroke-opacity:1;stroke-dasharray:none"
       d="m 236.7475,471.91395 -8.05324,0 -0.17857,-22.68166 -17.92723,0 0,22.68166 -8.48805,0 -0.24626,-3.06354 -4.58712,-0.14297 -0.0395,-3.62585 -3.96852,-0.13479 -0.26995,-3.88037 -3.94421,-0.0677 -0.16659,-2.972 -4.07132,-0.22903 -0.2429,-2.91831 -3.67667,-0.15762 -0.17885,-2.98086 -3.54143,-0.24428 -0.16874,-3.64448 -3.7012,-0.13509"
       id="path3769"
       inkscape:connector-curvature="0"
       sodipodi:nodetypes="cccccccccccccccccccc" />
    <path
       style="fill:#ff5555;stroke:#ea574f;stroke-width:1;stroke-linecap:butt;stroke-linejoin:miter;stroke-miterlimit:4;stroke-opacity:1;stroke-dasharray:2, 1;stroke-dashoffset:0"
       d="m 172.14286,442.18361 0,34.46429"
       id="path3773"
       inkscape:connector-curvature="0" />
    <path
       style="fill:#ff5555;stroke:#ea574f;stroke-width:1;stroke-linecap:butt;stroke-linejoin:miter;stroke-miterlimit:4;stroke-opacity:1;stroke-dasharray:2, 1;stroke-dashoffset:0"
       d="m 176.60715,442.09432 0,34.46429"
       id="path3773-3"
       inkscape:connector-curvature="0" />
    <path
       style="fill:#ff5555;stroke:#ea574f;stroke-width:1;stroke-linecap:butt;stroke-linejoin:miter;stroke-miterlimit:4;stroke-opacity:1;stroke-dasharray:2, 1;stroke-dashoffset:0"
       d="m 180.71429,442.45147 0,34.46429"
       id="path3773-2"
       inkscape:connector-curvature="0" />
    <path
       style="fill:#ff5555;stroke:#ea574f;stroke-width:1;stroke-linecap:butt;stroke-linejoin:miter;stroke-miterlimit:4;stroke-opacity:1;stroke-dasharray:2, 1;stroke-dashoffset:0"
       d="m 185,442.45147 0,34.46429"
       id="path3773-1"
       inkscape:connector-curvature="0" />
    <path
       style="fill:#ff5555;stroke:#ea574f;stroke-width:1;stroke-linecap:butt;stroke-linejoin:miter;stroke-miterlimit:4;stroke-opacity:1;stroke-dasharray:2, 1;stroke-dashoffset:0"
       d="m 188.92857,442.80861 0,34.46429"
       id="path3773-5"
       inkscape:connector-curvature="0" />
    <path
       style="fill:#ff5555;stroke:#ea574f;stroke-width:1;stroke-linecap:butt;stroke-linejoin:miter;stroke-miterlimit:4;stroke-opacity:1;stroke-dasharray:2, 1;stroke-dashoffset:0"
       d="m 192.85714,442.63003 0,34.46429"
       id="path3773-8"
       inkscape:connector-curvature="0" />
    <path
       style="fill:#ff5555;stroke:#ea574f;stroke-width:1;stroke-linecap:butt;stroke-linejoin:miter;stroke-miterlimit:4;stroke-opacity:1;stroke-dasharray:2, 1;stroke-dashoffset:0"
       d="m 197.32142,442.80861 0,34.46429"
       id="path3773-36"
       inkscape:connector-curvature="0" />
    <path
       style="fill:#ff5555;stroke:#ea574f;stroke-width:1;stroke-linecap:butt;stroke-linejoin:miter;stroke-miterlimit:4;stroke-opacity:1;stroke-dasharray:2, 1;stroke-dashoffset:0"
       d="m 201.93891,443.03948 0,34.46429"
       id="path3773-4"
       inkscape:connector-curvature="0" />
    <path
       style="fill:#ff5555;stroke:#ea574f;stroke-width:1;stroke-linecap:butt;stroke-linejoin:miter;stroke-miterlimit:4;stroke-opacity:1;stroke-dasharray:2, 1;stroke-dashoffset:0"
       d="m 210.53571,443.34432 0,34.46429"
       id="path3773-0"
       inkscape:connector-curvature="0" />
    <path
       style="fill:#ff5555;stroke:#ea574f;stroke-width:1;stroke-linecap:butt;stroke-linejoin:miter;stroke-miterlimit:4;stroke-opacity:1;stroke-dasharray:2, 1;stroke-dashoffset:0"
       d="m 228.46429,443.52289 0,34.46429"
       id="path3773-6"
       inkscape:connector-curvature="0" />
    <g
       style="font-size:40px;font-style:normal;font-weight:normal;line-height:125%;letter-spacing:0px;word-spacing:0px;fill:#00944f;fill-opacity:1;stroke:#ffffff;stroke-opacity:1;font-family:Sans"
       id="text2985">
      <path
         d="m 259.09631,471.73461 c -0.08,0.0533 -0.26669,0.14666 -0.56,0.28 -0.26669,0.13333 -0.62669,0.28 -1.08,0.44 -0.45335,0.13333 -1.01335,0.25333 -1.68,0.36 -0.64002,0.10666 -1.37335,0.16 -2.2,0.16 -2.26668,0 -3.92001,-0.66667 -4.96,-2 -1.04001,-1.36 -1.56001,-3.33333 -1.56,-5.92 l 0,-15.96 -5.2,0 0,-4.08 10.12,0 0,20.4 c -2e-5,1.28 0.25332,2.14667 0.76,2.6 0.50665,0.45333 1.14665,0.68 1.92,0.68 0.98665,0 1.81331,-0.13333 2.48,-0.4 0.66664,-0.26667 1.10664,-0.44 1.32,-0.52 l 0.64,3.96"
         style="font-variant:normal;font-weight:bold;font-stretch:normal;fill:#00944f;stroke:#ffffff;font-family:Ubuntu Mono;-inkscape-font-specification:Ubuntu Mono Bold"
         id="path3871" />
      <path
         d="m 270.45631,469.01461 c 0.53332,0 1.05332,0 1.56,0 0.50665,-0.0267 0.94665,-0.0667 1.32,-0.12 l 0,-4.32 c -0.32002,-0.0533 -0.70668,-0.0933 -1.16,-0.12 -0.45335,-0.0533 -0.86668,-0.08 -1.24,-0.08 -0.50668,10e-6 -1.00001,0.04 -1.48,0.12 -0.48001,0.0533 -0.90668,0.16 -1.28,0.32 -0.34668,0.16 -0.62668,0.38667 -0.84,0.68 -0.21334,0.29334 -0.32001,0.68 -0.32,1.16 -10e-6,0.85334 0.31999,1.46667 0.96,1.84 0.63999,0.34667 1.46665,0.52 2.48,0.52 m -0.44,-15.76 c 1.54665,2e-5 2.82665,0.18668 3.84,0.56 1.03998,0.34668 1.86665,0.85335 2.48,1.52 0.61331,0.64001 1.05331,1.44001 1.32,2.4 0.26664,0.93334 0.39998,1.98668 0.4,3.16 l 0,11.2 c -0.72002,0.16 -1.78669,0.34666 -3.2,0.56 -1.41335,0.21333 -3.00002,0.32 -4.76,0.32 -1.20001,0 -2.29335,-0.10667 -3.28,-0.32 -0.96001,-0.21334 -1.78668,-0.56 -2.48,-1.04 -0.69334,-0.50667 -1.22667,-1.14667 -1.6,-1.92 -0.37334,-0.8 -0.56001,-1.77333 -0.56,-2.92 -10e-6,-1.09333 0.21333,-2.01333 0.64,-2.76 0.42666,-0.74666 0.99999,-1.34666 1.72,-1.8 0.71999,-0.45333 1.54666,-0.77333 2.48,-0.96 0.93332,-0.21332 1.90665,-0.31999 2.92,-0.32 1.27998,10e-6 2.41332,0.10668 3.4,0.32 l 0,-0.6 c -2e-5,-0.93332 -0.29335,-1.70666 -0.88,-2.32 -0.58668,-0.63999 -1.60001,-0.95999 -3.04,-0.96 -0.93335,10e-6 -1.84001,0.0667 -2.72,0.2 -0.85334,0.13335 -1.54668,0.29334 -2.08,0.48 l -0.68,-3.96 c 0.61332,-0.21332 1.47999,-0.39998 2.6,-0.56 1.11999,-0.18665 2.27999,-0.27998 3.48,-0.28"
         style="font-variant:normal;font-weight:bold;font-stretch:normal;fill:#00944f;stroke:#ffffff;font-family:Ubuntu Mono;-inkscape-font-specification:Ubuntu Mono Bold"
         id="path3873" />
      <path
         d="m 294.21631,463.01461 c -2e-5,-1.75999 -0.29335,-3.10666 -0.88,-4.04 -0.56002,-0.93332 -1.42668,-1.39999 -2.6,-1.4 -0.53335,10e-6 -1.06668,0.08 -1.6,0.24 -0.50668,0.13334 -0.94668,0.30668 -1.32,0.52 l 0,10.2 c 0.37332,0.08 0.75999,0.13333 1.16,0.16 0.42665,0.0267 0.78665,0.04 1.08,0.04 1.27998,0 2.29332,-0.42667 3.04,-1.28 0.74665,-0.88 1.11998,-2.36 1.12,-4.44 m 5,0.12 c -2e-5,1.49334 -0.20002,2.85334 -0.6,4.08 -0.40002,1.2 -0.98669,2.22667 -1.76,3.08 -0.77335,0.85333 -1.72002,1.52 -2.84,2 -1.12002,0.45333 -2.40002,0.68 -3.84,0.68 -1.28001,0 -2.58668,-0.0933 -3.92,-0.28 -1.33334,-0.18667 -2.45334,-0.42667 -3.36,-0.72 l 0,-26.36 4.92,-0.84 0,9.4 c 0.69332,-0.31998 1.35999,-0.53332 2,-0.64 0.63999,-0.13332 1.27998,-0.19998 1.92,-0.2 1.22665,2e-5 2.30665,0.24002 3.24,0.72 0.93331,0.45335 1.70665,1.12001 2.32,2 0.63998,0.85335 1.11998,1.88001 1.44,3.08 0.31998,1.20001 0.47998,2.53334 0.48,4"
         style="font-variant:normal;font-weight:bold;font-stretch:normal;fill:#00944f;stroke:#ffffff;font-family:Ubuntu Mono;-inkscape-font-specification:Ubuntu Mono Bold"
         id="path3875" />
      <path
         d="m 309.53631,468.81461 c 1.19999,0 2.11998,-0.08 2.76,-0.24 0.63998,-0.18667 0.95998,-0.54667 0.96,-1.08 -2e-5,-0.34666 -0.10668,-0.64 -0.32,-0.88 -0.18668,-0.24 -0.46668,-0.44 -0.84,-0.6 -0.34668,-0.18666 -0.76002,-0.36 -1.24,-0.52 -0.45335,-0.16 -0.93335,-0.32 -1.44,-0.48 -0.72001,-0.21333 -1.45335,-0.45333 -2.2,-0.72 -0.74668,-0.29333 -1.42668,-0.65333 -2.04,-1.08 -0.61334,-0.42666 -1.12001,-0.95999 -1.52,-1.6 -0.40001,-0.66666 -0.60001,-1.49332 -0.6,-2.48 -10e-6,-0.79999 0.14666,-1.54665 0.44,-2.24 0.31999,-0.71999 0.79999,-1.34665 1.44,-1.88 0.66666,-0.55998 1.50666,-0.98665 2.52,-1.28 1.01332,-0.31998 2.22665,-0.47998 3.64,-0.48 1.22665,2e-5 2.35998,0.0933 3.4,0.28 1.06665,0.18668 1.98665,0.45335 2.76,0.8 l -0.76,4.16 c -0.45335,-0.13332 -1.16002,-0.34666 -2.12,-0.64 -0.96002,-0.31999 -2.04002,-0.47999 -3.24,-0.48 -1.25335,10e-6 -2.10668,0.16001 -2.56,0.48 -0.42668,0.29334 -0.64001,0.61334 -0.64,0.96 -10e-6,0.29334 0.0933,0.56001 0.28,0.8 0.21332,0.21334 0.47999,0.41334 0.8,0.6 0.34665,0.18668 0.73332,0.37334 1.16,0.56 0.45332,0.16001 0.93332,0.32001 1.44,0.48 0.71998,0.24001 1.46665,0.50667 2.24,0.8 0.77331,0.29334 1.46665,0.66667 2.08,1.12 0.63998,0.42667 1.15998,0.98667 1.56,1.68 0.39998,0.66667 0.59998,1.49334 0.6,2.48 -2e-5,0.77333 -0.14669,1.50667 -0.44,2.2 -0.29335,0.69333 -0.78669,1.29333 -1.48,1.8 -0.66669,0.50666 -1.54669,0.90666 -2.64,1.2 -1.09335,0.29333 -2.44002,0.44 -4.04,0.44 -1.62668,0 -3.01334,-0.18667 -4.16,-0.56 -1.14667,-0.37334 -2.06667,-0.70667 -2.76,-1 l 0.76,-4.12 c 0.93333,0.37334 1.91999,0.72 2.96,1.04 1.06666,0.32 2.14665,0.48 3.24,0.48"
         style="font-variant:normal;font-weight:bold;font-stretch:normal;fill:#00944f;stroke:#ffffff;font-family:Ubuntu Mono;-inkscape-font-specification:Ubuntu Mono Bold"
         id="path3877" />
      <path
         d="m 322.17631,463.13461 c -10e-6,-1.35999 0.21333,-2.63999 0.64,-3.84 0.42666,-1.19999 1.07999,-2.23999 1.96,-3.12 0.87999,-0.90665 1.98666,-1.61332 3.32,-2.12 1.35999,-0.53332 2.97332,-0.79998 4.84,-0.8 1.11998,2e-5 2.13331,0.08 3.04,0.24 0.90665,0.16002 1.82664,0.42668 2.76,0.8 l -1.08,3.96 c -0.53335,-0.18666 -1.13335,-0.34666 -1.8,-0.48 -0.64002,-0.15999 -1.46669,-0.23999 -2.48,-0.24 -1.17335,1e-5 -2.16002,0.14668 -2.96,0.44 -0.77335,0.26668 -1.40001,0.65334 -1.88,1.16 -0.48001,0.48001 -0.82668,1.06668 -1.04,1.76 -0.21334,0.69334 -0.32001,1.44001 -0.32,2.24 -10e-6,1.73334 0.47999,3.09334 1.44,4.08 0.98665,0.98667 2.65332,1.48 5,1.48 0.77331,0 1.57331,-0.0533 2.4,-0.16 0.85331,-0.10667 1.62664,-0.28 2.32,-0.52 l 0.72,4.04 c -0.69336,0.26666 -1.53335,0.48 -2.52,0.64 -0.98669,0.18666 -2.14669,0.28 -3.48,0.28 -1.92002,0 -3.57335,-0.25334 -4.96,-0.76 -1.36001,-0.50667 -2.48001,-1.2 -3.36,-2.08 -0.88001,-0.88 -1.53334,-1.92 -1.96,-3.12 -0.40001,-1.2 -0.60001,-2.49333 -0.6,-3.88"
         style="font-variant:normal;font-weight:bold;font-stretch:normal;fill:#00944f;stroke:#ffffff;font-family:Ubuntu Mono;-inkscape-font-specification:Ubuntu Mono Bold"
         id="path3879" />
      <path
         d="m 357.89631,458.73461 c -0.32002,-0.08 -0.70669,-0.15999 -1.16,-0.24 -0.42669,-0.08 -0.86669,-0.14666 -1.32,-0.2 -0.45335,-0.08 -0.89335,-0.13332 -1.32,-0.16 -0.42668,-0.0267 -0.78668,-0.04 -1.08,-0.04 -0.69335,1e-5 -1.37335,0.04 -2.04,0.12 -0.66668,0.0533 -1.34668,0.17334 -2.04,0.36 l 0,13.96 -4.96,0 0,-17.56 c 1.30666,-0.47999 2.63999,-0.86665 4,-1.16 1.38665,-0.29332 2.99998,-0.43998 4.84,-0.44 0.26665,2e-5 0.63998,0.0134 1.12,0.04 0.50665,0.0267 1.03998,0.08 1.6,0.16 0.55998,0.0533 1.11998,0.13335 1.68,0.24 0.58664,0.08 1.10664,0.20002 1.56,0.36 l -0.88,4.56"
         style="font-variant:normal;font-weight:bold;font-stretch:normal;fill:#00944f;stroke:#ffffff;font-family:Ubuntu Mono;-inkscape-font-specification:Ubuntu Mono Bold"
         id="path3881" />
      <path
         d="m 371.77631,448.33461 c -2e-5,0.96002 -0.30668,1.72002 -0.92,2.28 -0.61335,0.56002 -1.34668,0.84002 -2.2,0.84 -0.85335,2e-5 -1.58668,-0.27998 -2.2,-0.84 -0.58668,-0.55998 -0.88001,-1.31998 -0.88,-2.28 -10e-6,-0.98664 0.29332,-1.75998 0.88,-2.32 0.61332,-0.55998 1.34665,-0.83998 2.2,-0.84 0.85332,2e-5 1.58665,0.28002 2.2,0.84 0.61332,0.56002 0.91998,1.33336 0.92,2.32 m 7.32,23.4 c -1.01336,0.48 -1.97335,0.8 -2.88,0.96 -0.88002,0.18666 -1.69335,0.28 -2.44,0.28 -1.28002,0 -2.36002,-0.18667 -3.24,-0.56 -0.85335,-0.37334 -1.54668,-0.90667 -2.08,-1.6 -0.50668,-0.72 -0.86668,-1.58667 -1.08,-2.6 -0.21334,-1.01333 -0.32001,-2.17333 -0.32,-3.48 l 0,-6.92 -5.2,0 0,-4.08 10.12,0 0,11.64 c -2e-5,1.12 0.19998,1.96 0.6,2.52 0.42665,0.53333 1.11998,0.8 2.08,0.8 0.45331,0 0.99998,-0.0533 1.64,-0.16 0.63998,-0.13333 1.35998,-0.38667 2.16,-0.76 l 0.64,3.96"
         style="font-variant:normal;font-weight:bold;font-stretch:normal;fill:#00944f;stroke:#ffffff;font-family:Ubuntu Mono;-inkscape-font-specification:Ubuntu Mono Bold"
         id="path3883" />
      <path
         d="m 394.17631,463.29461 c -2e-5,-1.67999 -0.33335,-3.05332 -1,-4.12 -0.66668,-1.09332 -1.68002,-1.63999 -3.04,-1.64 -0.37335,1e-5 -0.77335,0.0267 -1.2,0.08 -0.42668,0.0267 -0.78668,0.0533 -1.08,0.08 l 0,10.32 c 0.31999,0.21333 0.74665,0.38667 1.28,0.52 0.53332,0.13333 1.06665,0.2 1.6,0.2 1.17332,0 2.03998,-0.46667 2.6,-1.4 0.55998,-0.96 0.83998,-2.30666 0.84,-4.04 m 5,-0.16 c -2e-5,1.44 -0.16002,2.77334 -0.48,4 -0.32002,1.2 -0.78669,2.24 -1.4,3.12 -0.61335,0.85333 -1.38669,1.52 -2.32,2 -0.93335,0.48 -2.01335,0.72 -3.24,0.72 -1.25335,0 -2.54668,-0.30667 -3.88,-0.92 l 0,7.08 -4.92,0 0,-24.8 c 0.90666,-0.29332 2.01332,-0.53332 3.32,-0.72 1.33332,-0.18665 2.63999,-0.27998 3.92,-0.28 2.90665,2e-5 5.13331,0.88002 6.68,2.64 1.54664,1.76001 2.31998,4.14668 2.32,7.16"
         style="font-variant:normal;font-weight:bold;font-stretch:normal;fill:#00944f;stroke:#ffffff;font-family:Ubuntu Mono;-inkscape-font-specification:Ubuntu Mono Bold"
         id="path3885" />
      <path
         d="m 406.13631,457.81461 -4.28,0 0,-4.08 4.28,0 0,-4.72 4.92,-0.8 0,5.52 7.88,0 0,4.08 -7.88,0 0,7.6 c -2e-5,0.69334 0.0666,1.25334 0.2,1.68 0.13332,0.42667 0.31998,0.76 0.56,1 0.23998,0.24 0.53332,0.4 0.88,0.48 0.34665,0.08 0.73332,0.12 1.16,0.12 0.45331,0 0.86665,-0.0133 1.24,-0.04 0.39998,-0.0267 0.77331,-0.0667 1.12,-0.12 0.37331,-0.08 0.74665,-0.18667 1.12,-0.32 0.39998,-0.13333 0.82664,-0.30667 1.28,-0.52 l 0.68,4.24 c -0.90669,0.37333 -1.89335,0.64 -2.96,0.8 -1.04002,0.16 -2.05335,0.24 -3.04,0.24 -1.14668,0 -2.16002,-0.0933 -3.04,-0.28 -0.88001,-0.18667 -1.62668,-0.54667 -2.24,-1.08 -0.61334,-0.53333 -1.08001,-1.28 -1.4,-2.24 -0.32001,-0.98667 -0.48001,-2.26666 -0.48,-3.84 l 0,-7.72"
         style="font-variant:normal;font-weight:bold;font-stretch:normal;fill:#00944f;stroke:#ffffff;font-family:Ubuntu Mono;-inkscape-font-specification:Ubuntu Mono Bold"
         id="path3887" />
    </g>
  </g>
</svg>
